<svg version="1.1" id="Layer_1" xmlns="http://www.w3.org/2000/svg" xmlns:xlink="http://www.w3.org/1999/xlink" x="0px" y="0px"
	 width="100%" viewBox="0 0 218 195" enable-background="new 0 0 218 195" xml:space="preserve">
<path fill="#FEFFFF" opacity="1.000000" stroke="none" 
	d="
M1.000000,51.000000 
	C1.000000,34.000004 1.000000,17.500008 1.000000,1.000009 
	C73.666649,1.000006 146.333298,1.000006 218.999954,1.000003 
	C218.999969,65.999962 218.999969,130.999924 218.999985,195.999908 
	C146.333389,195.999939 73.666779,195.999939 1.000081,195.999969 
	C1.000000,147.833328 1.000000,99.666664 1.000000,51.000000 
M212.617126,23.679043 
	C212.411606,21.452667 212.206070,19.226292 212.000519,16.249973 
	C212.000610,15.500048 212.000702,14.750123 212.659470,13.903961 
	C213.636154,10.157839 212.061157,7.987263 207.821625,8.060202 
	C200.862427,8.179931 193.910522,8.929908 186.953857,8.955441 
	C157.627518,9.063077 128.300568,9.000958 98.973831,9.000988 
	C80.477997,9.001007 61.982151,8.992947 43.486336,9.012574 
	C41.419666,9.014767 38.827389,8.359208 38.092903,11.974421 
	C35.391830,11.974268 32.690762,11.974115 29.438911,11.406293 
	C21.813240,10.413104 20.581680,11.014029 19.693287,16.513506 
	C19.152464,16.731853 18.611639,16.950201 17.923260,16.437683 
	C16.852015,16.100338 15.105958,15.179543 14.814611,15.516510 
	C12.102339,18.653492 8.993292,21.712328 7.317957,25.393902 
	C6.064430,28.148546 6.179880,31.865032 10.544701,33.400970 
	C11.946782,33.894352 12.864811,35.763309 14.000792,37.797218 
	C14.077808,44.124386 14.979075,49.899345 22.648449,51.478249 
	C23.337154,51.620029 23.850988,52.560368 24.469120,53.103577 
	C31.812349,59.556725 39.416275,65.457176 49.997433,65.768494 
	C54.072456,71.576149 57.372894,78.337524 66.043686,78.356697 
	C66.911560,78.358620 68.105644,78.962509 68.592354,79.669685 
	C72.311569,85.073540 77.216537,83.089211 82.666435,81.999207 
	C83.109734,82.000969 83.553040,82.002739 84.068588,82.709663 
	C84.497681,84.654694 84.279892,87.487587 85.485901,88.366249 
	C88.292732,90.411224 91.785484,91.514717 95.000053,93.833397 
	C95.000443,95.222878 95.000832,96.612350 95.000916,98.824417 
	C95.522324,102.778168 93.506104,104.562752 89.806015,104.986588 
	C82.035057,105.876740 82.036713,105.891174 81.182861,114.100945 
	C78.445854,114.393517 75.256752,115.731148 73.057838,114.779877 
	C66.819496,112.081131 60.991810,116.226967 54.408722,114.960381 
	C53.932751,114.657799 53.456776,114.355217 52.992863,113.213020 
	C52.510365,104.331917 50.852665,102.465569 41.312820,100.383614 
	C41.798901,95.185898 38.495056,94.480606 34.341183,95.009773 
	C28.509121,95.752708 22.501966,95.839020 18.656542,101.668053 
	C17.461390,103.479706 14.915545,104.350983 13.177449,105.869537 
	C11.807858,107.066139 10.387133,108.421700 9.580898,110.007523 
	C6.294773,116.471207 9.717213,124.137421 6.086199,130.629761 
	C5.795208,131.150055 6.509520,132.172791 6.605832,132.980026 
	C6.986967,136.174530 7.398520,139.369904 7.620584,142.577316 
	C7.777033,144.837021 7.791240,147.128571 7.606664,149.384430 
	C7.369846,152.278763 6.843846,155.148346 6.490397,158.034485 
	C6.097152,161.245575 5.244612,164.507309 5.515884,167.667694 
	C5.918136,172.354019 7.418874,176.940811 7.907013,181.626755 
	C8.260037,185.015656 9.404605,186.745056 12.946497,187.107651 
	C15.521250,187.371216 17.986582,188.580399 20.560648,189.001648 
	C24.859118,189.705124 29.237297,190.735580 33.524899,190.515823 
	C41.560009,190.103973 49.538467,188.421387 57.570087,188.152969 
	C65.748108,187.879654 73.960945,188.928070 82.159950,188.954117 
	C115.804497,189.061020 149.449585,188.999222 183.094467,188.998306 
	C187.836853,188.998169 192.646866,189.472855 197.298050,188.819733 
	C200.440567,188.378448 205.524567,189.630493 205.825607,184.245224 
	C206.028885,180.608994 207.426331,179.014557 210.675552,177.782272 
	C212.389496,177.132233 214.884399,174.569427 214.619308,173.430649 
	C213.875732,170.236282 212.006195,167.255920 210.242264,164.400253 
	C209.984528,163.982986 207.869781,164.666168 206.628906,164.913483 
	C204.658768,165.306152 202.700943,165.760651 200.317078,166.280823 
	C200.174072,163.915588 200.085724,162.454437 200.885132,160.992340 
	C203.248642,160.988937 205.612152,160.985550 208.616959,161.254364 
	C209.759644,160.396576 211.605194,159.734985 211.909958,158.643280 
	C212.741714,155.663742 214.930206,152.123398 211.150650,149.677521 
	C207.570114,147.360428 203.634369,145.598999 199.944397,143.440155 
	C198.816452,142.780228 197.456039,141.779312 197.104370,140.652878 
	C195.091507,134.205154 193.748734,133.145401 186.895996,132.957794 
	C185.350906,132.915512 182.924011,132.821503 182.424271,131.913803 
	C178.066223,123.997856 169.412949,125.651245 162.770782,123.511665 
	C159.921829,122.593964 158.200500,122.172615 156.695404,119.628006 
	C155.112305,116.951569 154.388992,112.662437 150.137146,113.139267 
	C143.702011,113.860931 138.280563,111.328796 132.660202,109.002220 
	C128.183609,107.149109 123.558739,105.654221 118.999939,103.166885 
	C118.999863,101.777870 118.999779,100.388863 119.768280,98.910591 
	C122.620979,98.768822 125.473686,98.627052 128.637436,98.469818 
	C127.535362,94.827316 129.342545,94.062294 132.663040,93.911758 
	C138.646118,93.640503 144.235229,91.622543 147.254425,86.148689 
	C149.498703,82.079765 152.398346,81.604851 156.320694,82.216087 
	C160.862839,82.923927 165.438934,83.413834 170.438370,84.215805 
	C170.711716,84.415497 170.899124,84.676826 171.001556,85.803307 
	C171.258667,93.408096 177.909729,91.247589 182.691666,93.305328 
	C185.459274,93.872597 188.226898,94.439873 191.159256,95.765793 
	C194.771973,96.501541 198.369461,97.337158 202.009766,97.891815 
	C202.770554,98.007729 203.859756,97.256752 204.503326,96.611656 
	C206.432800,94.677559 208.384033,92.722115 210.003235,90.535439 
	C211.254562,88.845558 212.595688,86.878410 212.883926,84.887848 
	C213.569611,80.152588 213.806488,75.334106 213.924759,70.541847 
	C213.993820,67.742981 215.007828,64.333725 211.089294,62.261547 
	C211.391846,60.841084 211.694397,59.420620 212.561325,57.517227 
	C212.601944,49.186275 212.720734,40.853870 212.565506,32.526569 
	C212.549515,31.668133 210.898865,30.840166 209.987411,29.441200 
	C209.971420,29.256157 209.955444,29.071114 209.969391,28.443453 
	C209.969391,28.443453 210.049728,28.007158 210.755539,27.871897 
	C211.170151,26.581314 211.584763,25.290731 212.617126,23.679043 
z"/>
<path fill="#F1B8C0" opacity="1.000000" stroke="none" 
	d="
M18.070816,17.168549 
	C18.611639,16.950201 19.152464,16.731853 20.211899,16.219322 
	C23.816902,14.608079 26.903297,13.291021 29.989691,11.973963 
	C32.690762,11.974115 35.391830,11.974268 39.009415,11.983353 
	C48.408581,12.006040 56.891235,12.031330 65.373894,12.031631 
	C111.779793,12.033278 158.185730,12.006545 204.591400,12.109679 
	C206.402390,12.113704 208.210663,13.340853 210.009460,14.373620 
	C210.007523,15.500246 210.016327,16.251329 210.015045,17.439358 
	C210.038315,19.914330 210.071671,21.952353 210.061966,24.390623 
	C210.029175,25.862967 210.039459,26.935062 210.049728,28.007158 
	C210.049728,28.007158 209.969391,28.443453 209.544464,28.691854 
	C207.745819,29.015516 206.372086,29.090776 204.531921,29.121319 
	C180.043579,29.099823 156.021652,29.123043 131.536224,29.094069 
	C126.382080,29.074566 121.691437,29.107256 116.533768,29.099821 
	C105.377815,29.083599 94.688896,29.107502 83.533676,29.082001 
	C75.711845,29.064074 68.356308,29.095547 60.534573,29.089272 
	C54.712204,29.076908 49.356037,29.102295 43.534496,29.079453 
	C37.712952,29.065210 32.356781,29.099197 26.564262,29.095604 
	C24.085611,29.083717 22.043304,29.109411 19.575497,29.086288 
	C17.438004,29.017473 15.726013,28.997477 14.006905,28.989014 
	C13.999787,29.000549 14.022509,28.985531 14.019978,28.599812 
	C14.300126,26.475225 14.582806,24.736359 15.010181,22.742275 
	C15.429687,21.972301 15.704498,21.457542 16.275160,20.821766 
	C17.048962,19.800606 17.526917,18.900467 18.034321,17.793411 
	C18.063774,17.586494 18.070816,17.168549 18.070816,17.168549 
z"/>
<path fill="#FDF9F9" opacity="1.000000" stroke="none" 
	d="
M199.997375,160.993286 
	C200.085724,162.454437 200.174072,163.915588 200.317078,166.280823 
	C202.700943,165.760651 204.658768,165.306152 206.628906,164.913483 
	C207.869781,164.666168 209.984528,163.982986 210.242264,164.400253 
	C212.006195,167.255920 213.875732,170.236282 214.619308,173.430649 
	C214.884399,174.569427 212.389496,177.132233 210.675552,177.782272 
	C207.426331,179.014557 206.028885,180.608994 205.825607,184.245224 
	C205.524567,189.630493 200.440567,188.378448 197.298050,188.819733 
	C192.646866,189.472855 187.836853,188.998169 183.094467,188.998306 
	C149.449585,188.999222 115.804497,189.061020 82.159950,188.954117 
	C73.960945,188.928070 65.748108,187.879654 57.570087,188.152969 
	C49.538467,188.421387 41.560009,190.103973 33.524899,190.515823 
	C29.237297,190.735580 24.859118,189.705124 20.560648,189.001648 
	C17.986582,188.580399 15.521250,187.371216 12.946497,187.107651 
	C9.404605,186.745056 8.260037,185.015656 7.907013,181.626755 
	C7.418874,176.940811 5.918136,172.354019 5.515884,167.667694 
	C5.244612,164.507309 6.097152,161.245575 6.490397,158.034485 
	C6.843846,155.148346 7.369846,152.278763 7.606664,149.384430 
	C7.791240,147.128571 7.777033,144.837021 7.620584,142.577316 
	C7.398520,139.369904 6.986967,136.174530 6.605832,132.980026 
	C6.509520,132.172791 5.795208,131.150055 6.086199,130.629761 
	C9.717213,124.137421 6.294773,116.471207 9.580898,110.007523 
	C10.387133,108.421700 11.807858,107.066139 13.177449,105.869537 
	C14.915545,104.350983 17.461390,103.479706 18.656542,101.668053 
	C22.501966,95.839020 28.509121,95.752708 34.341183,95.009773 
	C38.495056,94.480606 41.798901,95.185898 41.312820,100.383614 
	C50.852665,102.465569 52.510365,104.331917 52.663078,113.496780 
	C50.569351,113.156891 48.805416,112.533249 46.909241,111.656891 
	C46.195251,110.930046 45.613499,110.455910 44.891483,109.683914 
	C42.835674,107.581093 40.920132,105.776115 38.959106,103.650742 
	C37.946621,103.208275 36.979610,103.086197 35.673904,102.975906 
	C34.884853,103.023460 34.434498,103.059227 33.654408,103.051941 
	C32.885605,102.947693 32.446537,102.886482 31.919329,102.480545 
	C29.673172,100.669167 27.579552,99.724434 25.624153,102.900284 
	C22.489468,105.291168 19.719536,107.638367 16.913319,110.185387 
	C16.877031,110.385216 16.870918,110.791367 16.563265,110.884857 
	C15.488183,111.983574 14.720756,112.988808 13.611324,114.058792 
	C11.354820,115.827316 11.234538,117.188850 14.252931,118.253174 
	C15.660872,118.719429 16.824310,118.930840 18.063728,119.484039 
	C20.423779,120.552376 22.707848,121.278923 24.996111,122.002754 
	C25.000305,122.000046 24.994724,122.009834 25.026634,122.302460 
	C25.707603,122.725258 26.356663,122.855438 27.376354,122.986755 
	C28.487028,123.014351 29.227068,123.040810 30.059227,123.409637 
	C31.422279,124.257912 32.693211,124.763824 33.972824,125.605598 
	C33.988380,126.626930 33.995262,127.312401 33.664154,128.032944 
	C32.542217,130.061676 31.758268,132.055328 30.636839,134.041336 
	C29.540205,133.667511 28.781055,133.301346 27.968502,132.576447 
	C25.541775,131.181488 23.168455,130.145233 20.445534,129.111237 
	C19.399836,129.052475 18.703737,128.991440 17.973396,128.644409 
	C17.292524,128.238602 16.645897,128.118805 15.671645,128.011261 
	C14.906917,128.022522 14.469810,128.021530 13.649820,128.088257 
	C13.155617,130.761292 13.044296,133.366592 12.961148,136.436310 
	C12.978089,140.940125 12.966859,144.979523 12.670578,149.308426 
	C12.256433,150.576675 12.033387,151.553452 12.013004,152.534454 
	C11.839598,160.880112 11.958885,160.995636 20.115086,160.998718 
	C28.277349,161.001801 36.439613,161.002563 44.601879,160.997665 
	C47.433361,160.995972 50.280361,161.148773 53.090725,160.898788 
	C54.890144,160.738739 57.015751,160.101700 54.071732,157.672852 
	C53.993343,156.911362 53.960606,156.474991 54.269192,155.888458 
	C57.546375,154.950623 59.715420,153.576294 59.265896,150.107498 
	C60.039692,150.467590 60.550476,150.717499 61.028782,150.977722 
	C60.996304,150.988052 61.045277,150.940521 61.065147,151.262985 
	C61.695660,152.059753 62.306293,152.534042 62.966709,153.311005 
	C63.037979,154.021698 63.059475,154.429703 63.087128,155.236115 
	C63.664158,159.764526 65.798309,161.449936 70.155785,161.092072 
	C75.073120,160.688232 80.049179,160.999268 85.012321,161.398636 
	C87.818977,162.864548 90.555557,164.594849 93.420464,164.842896 
	C97.754242,165.218079 102.280190,163.890152 106.532021,164.541779 
	C110.349548,165.126831 112.215424,163.647705 114.470932,160.990479 
	C140.337555,160.988525 165.735657,160.988068 191.133774,160.988190 
	C194.088303,160.988205 197.042847,160.991501 199.997375,160.993286 
M141.500000,167.966156 
	C102.709892,167.967758 63.919788,167.969498 25.129683,167.970886 
	C13.689906,167.971298 13.899044,167.972443 13.814856,179.224274 
	C13.783362,183.433212 15.417969,184.183899 19.098228,184.131149 
	C31.082407,183.959366 43.070618,184.070145 55.057274,184.069687 
	C100.673172,184.067947 146.289078,184.073288 191.904968,184.054443 
	C199.011826,184.051498 205.861511,179.566437 208.026947,173.628357 
	C209.878845,168.550049 209.491669,167.974762 203.931625,167.970184 
	C183.454437,167.953323 162.977203,167.965073 141.500000,167.966156 
z"/>
<path fill="#FDF9F9" opacity="1.000000" stroke="none" 
	d="
M15.979311,20.942785 
	C15.704498,21.457542 15.429687,21.972301 14.674482,22.810326 
	C13.285699,25.059278 9.969613,26.914373 14.022509,28.985531 
	C14.022509,28.985531 13.999787,29.000549 14.072055,29.358459 
	C16.290155,31.473366 18.339451,32.257668 20.000999,29.135107 
	C22.043304,29.109411 24.085611,29.083717 26.666737,29.475204 
	C32.605927,30.081457 38.005997,30.284132 43.407913,30.402672 
	C43.595818,30.406796 43.802135,29.571653 43.999870,29.127682 
	C49.356037,29.102295 54.712204,29.076908 60.636482,29.469921 
	C68.603500,30.080999 76.002235,30.283840 83.402275,30.409842 
	C83.594200,30.413113 83.800423,29.576387 83.999969,29.131405 
	C94.688896,29.107502 105.377815,29.083599 116.636513,29.477976 
	C120.832253,30.263662 124.454399,30.823275 128.086227,30.895491 
	C129.378632,30.921186 130.694550,29.763662 131.999741,29.146259 
	C156.021652,29.123043 180.043579,29.099823 204.601456,29.446217 
	C206.760513,29.876575 208.383621,29.937317 210.006714,29.998060 
	C210.898865,30.840166 212.549515,31.668133 212.565506,32.526569 
	C212.720734,40.853870 212.601944,49.186275 211.963654,57.757511 
	C210.945267,57.995510 210.524536,57.993225 210.066223,57.524361 
	C210.017654,51.765713 209.850601,46.467678 210.052551,41.183746 
	C210.179184,37.871017 208.888916,36.937275 205.714096,36.971577 
	C193.808548,37.100201 181.900497,36.999916 169.840515,36.767120 
	C169.290924,36.544121 168.894211,36.539436 168.497482,36.534752 
	C168.649246,37.015930 168.800995,37.497112 168.976227,38.312973 
	C169.007278,39.094872 169.014847,39.542091 168.773651,40.177124 
	C169.684555,41.576504 170.844254,42.788074 172.208862,44.253925 
	C174.612503,46.663597 176.811234,48.818989 179.040848,51.324722 
	C180.105194,52.423054 181.138657,53.171047 182.506683,53.928604 
	C183.900146,54.609936 184.959030,55.281704 186.062134,56.303467 
	C188.147003,57.731613 190.187622,58.809765 192.524597,59.885040 
	C193.213959,59.921440 193.606979,59.960720 194.058090,60.352623 
	C198.419220,62.117550 202.722260,63.529854 207.372437,64.935898 
	C208.498047,64.288071 209.276520,63.646503 210.297394,63.003532 
	C210.539780,63.002121 211.024414,62.989723 211.024414,62.989723 
	C215.007828,64.333725 213.993820,67.742981 213.924759,70.541847 
	C213.806488,75.334106 213.569611,80.152588 212.883926,84.887848 
	C212.595688,86.878410 211.254562,88.845558 210.003235,90.535439 
	C208.384033,92.722115 206.432800,94.677559 204.503326,96.611656 
	C203.859756,97.256752 202.770554,98.007729 202.009766,97.891815 
	C198.369461,97.337158 194.771973,96.501541 191.509460,95.384308 
	C194.242142,94.358276 196.624619,93.713730 199.310791,92.901886 
	C204.274307,90.013535 208.482224,86.922340 209.583374,80.895088 
	C211.154938,78.003426 212.736115,75.165909 208.698318,73.009956 
	C208.464554,72.994499 208.004471,72.905846 207.969635,72.623306 
	C207.292358,72.221336 206.649902,72.101898 205.632965,71.997620 
	C203.839523,71.659912 202.420532,71.307030 200.969482,70.665741 
	C200.291153,70.252487 199.644882,70.127640 198.646240,70.010010 
	C197.196915,69.660385 196.099945,69.303566 194.970474,68.659714 
	C194.293274,68.245483 193.648575,68.118279 192.681366,67.975960 
	C191.573273,67.623055 190.787689,67.285263 189.949158,66.614594 
	C189.172989,65.899338 188.449799,65.516953 187.361359,65.134384 
	C184.665268,64.068954 182.334442,63.003716 179.963776,61.597549 
	C176.951797,59.170082 173.979614,57.083538 170.704666,54.859741 
	C168.583450,52.522114 166.764999,50.321743 164.935028,47.752411 
	C162.955917,44.588795 160.988342,41.794144 158.887848,38.790695 
	C158.547028,38.318958 158.295334,38.108383 157.905807,37.558784 
	C157.300568,36.802437 156.792847,36.125175 156.277588,36.119381 
	C148.613907,36.033199 140.945374,35.911652 133.288910,36.149956 
	C132.125031,36.186184 130.445282,37.775608 129.982162,39.012756 
	C128.127686,43.966679 126.658661,49.064896 125.028778,54.333229 
	C125.010490,54.556717 124.917305,54.995392 124.581558,55.034573 
	C123.510948,56.081470 122.776077,57.089191 121.914520,58.377541 
	C121.154823,59.426441 120.521805,60.194717 119.549637,60.979904 
	C118.472870,61.644424 117.735252,62.292034 116.713242,63.095722 
	C115.615303,63.492092 114.801765,63.732388 113.820168,63.749825 
	C113.100044,63.988979 112.547981,64.450996 111.553467,64.954315 
	C108.741447,64.961655 106.371895,64.927673 103.938675,64.563248 
	C102.581482,64.159271 101.287964,64.085747 99.536606,64.021011 
	C95.716743,64.014755 92.354721,63.999706 88.751381,63.712036 
	C86.005913,64.228020 83.501770,65.016624 80.600800,65.865189 
	C78.868118,65.982613 77.532249,66.040092 75.859573,66.095184 
	C75.006035,66.696259 74.489311,67.299713 73.812111,68.155167 
	C73.103119,68.620628 72.554604,68.834076 71.640961,69.061852 
	C69.520119,69.718269 67.764397,70.360352 65.710495,71.037781 
	C65.083176,71.471268 64.754044,71.869400 64.424911,72.267540 
	C64.929291,72.512085 65.433670,72.756630 66.156219,73.271271 
	C68.589012,74.329178 70.803642,75.116974 73.270477,76.040100 
	C74.014191,76.467697 74.505692,76.759956 75.030449,77.341118 
	C75.713135,77.744087 76.362564,77.858154 77.378044,78.008438 
	C79.157333,78.463593 80.570580,78.882538 81.857910,79.513290 
	C81.821823,80.482277 81.911636,81.239464 82.001450,81.996643 
	C77.216537,83.089211 72.311569,85.073540 68.592354,79.669685 
	C68.105644,78.962509 66.911560,78.358620 66.043686,78.356697 
	C57.372894,78.337524 54.072456,71.576149 50.011856,65.371162 
	C50.026279,64.973831 50.074944,64.904099 50.387383,64.943657 
	C51.466549,65.323044 52.233273,65.662872 53.065071,66.359482 
	C56.147678,69.257553 58.164536,67.557297 60.299683,65.039398 
	C61.000645,64.957443 61.403572,64.931206 62.190872,64.933777 
	C64.050682,63.989269 65.526123,63.015953 67.295647,62.000683 
	C67.984856,61.936436 68.379990,61.914146 69.172394,61.896309 
	C73.047241,60.324776 76.524803,58.748787 80.336334,57.122116 
	C81.120064,57.062458 81.569817,57.053486 82.216690,57.290314 
	C83.277023,57.062218 84.140236,56.588329 85.377182,56.068939 
	C86.503372,56.021408 87.255829,56.019382 88.298500,56.308556 
	C92.718109,56.415997 96.847519,56.232246 101.376747,56.070793 
	C104.192787,56.414917 106.609009,56.736736 109.243591,57.298851 
	C111.495659,58.011372 113.529366,58.483597 116.830574,59.250130 
	C116.781052,59.292339 117.836639,58.392616 118.548111,57.786194 
	C114.448776,51.452541 122.208389,48.395142 121.391983,45.032654 
	C124.144440,43.382004 126.026749,42.253181 127.909065,41.124359 
	C125.449112,39.380199 123.678467,39.126015 122.052475,38.497570 
	C120.395020,37.856968 118.883186,36.116264 117.301819,36.108971 
	C85.871216,35.964012 54.439701,35.978340 23.008749,36.078354 
	C21.670971,36.082615 20.336805,37.221779 18.624918,37.875645 
	C17.492353,37.908264 16.735825,37.897484 15.805326,37.659904 
	C15.089004,37.289715 14.546649,37.146328 14.004294,37.002941 
	C12.864811,35.763309 11.946782,33.894352 10.544701,33.400970 
	C6.179880,31.865032 6.064430,28.148546 7.317957,25.393902 
	C8.993292,21.712328 12.102339,18.653492 14.814611,15.516510 
	C15.105958,15.179543 16.852015,16.100338 17.997038,16.803116 
	C18.070816,17.168549 18.063774,17.586494 17.692055,17.843800 
	C16.873325,19.048334 16.426319,19.995560 15.979311,20.942785 
z"/>
<path fill="#FDF9F9" opacity="1.000000" stroke="none" 
	d="
M118.999695,104.000305 
	C123.558739,105.654221 128.183609,107.149109 132.660202,109.002220 
	C138.280563,111.328796 143.702011,113.860931 150.137146,113.139267 
	C154.388992,112.662437 155.112305,116.951569 156.695404,119.628006 
	C158.200500,122.172615 159.921829,122.593964 162.770782,123.511665 
	C169.412949,125.651245 178.066223,123.997856 182.424271,131.913803 
	C182.924011,132.821503 185.350906,132.915512 186.895996,132.957794 
	C193.748734,133.145401 195.091507,134.205154 197.104370,140.652878 
	C197.456039,141.779312 198.816452,142.780228 199.944397,143.440155 
	C203.634369,145.598999 207.570114,147.360428 211.150650,149.677521 
	C214.930206,152.123398 212.741714,155.663742 211.909958,158.643280 
	C211.605194,159.734985 209.759644,160.396576 208.306549,160.798981 
	C208.004898,159.917358 208.013672,159.491089 208.037064,158.720520 
	C208.066711,157.917587 208.081757,157.458969 208.389587,156.954224 
	C207.477478,155.264343 206.272583,153.620605 204.888519,151.744598 
	C204.149246,150.986969 203.589157,150.461578 203.016922,149.578354 
	C201.653488,148.157791 200.302185,147.095078 198.577988,146.022095 
	C196.246933,145.203674 194.192307,144.570450 192.349075,143.553894 
	C187.206573,140.717758 182.151657,137.722809 176.992981,134.491196 
	C176.265442,133.805435 175.607101,133.419067 174.633224,132.995331 
	C173.560318,132.591461 172.802917,132.224945 171.979202,131.534485 
	C170.592972,130.484222 169.273056,129.757889 167.720932,129.006409 
	C167.488708,128.981277 167.027878,128.904648 166.951370,128.558502 
	C163.463745,126.742744 158.394043,128.697937 154.608810,132.894806 
	C153.177353,133.299286 152.082275,133.622177 150.813614,133.726288 
	C150.086349,133.987534 149.532684,134.467560 148.692459,135.093536 
	C147.595886,135.461746 146.785889,135.684006 145.728088,135.649582 
	C135.505478,135.595047 125.529945,135.767975 115.556160,136.012009 
	C110.753716,136.129517 107.460533,138.380295 106.078278,143.435211 
	C106.007515,144.148285 105.950851,144.554031 105.588974,145.005341 
	C104.523483,145.701187 103.763199,146.351501 102.573837,147.001236 
	C100.428474,146.999420 98.712189,146.998184 97.002190,146.617584 
	C97.298027,144.748947 97.587578,143.259689 97.918106,141.439880 
	C98.344177,140.076416 98.729271,139.043503 99.427261,137.958878 
	C100.148087,137.244690 100.556015,136.582199 101.104500,135.619141 
	C102.798157,133.864349 104.351250,132.410126 106.303574,130.932114 
	C111.248611,130.295090 115.989998,128.548691 120.301544,129.292816 
	C130.900864,131.122162 140.677032,129.350174 150.223663,125.034409 
	C151.583908,124.419472 152.734161,123.340057 154.888275,121.847313 
	C152.779694,121.384972 151.896362,121.191284 151.006210,120.999496 
	C150.999390,121.001404 151.001389,120.987625 150.944550,120.635269 
	C147.526733,118.888756 144.165756,117.494598 140.453522,116.097298 
	C139.405304,116.011490 138.708359,115.928841 137.942444,115.514755 
	C136.196243,114.482002 134.519028,113.780678 132.629883,113.073898 
	C132.417984,113.068451 132.000366,112.995354 131.939545,112.639091 
	C126.585892,109.856186 121.293045,107.429543 116.205322,104.739929 
	C117.273521,104.318077 118.136612,104.159187 118.999695,104.000305 
z"/>
<path fill="#FDF9F9" opacity="1.000000" stroke="none" 
	d="
M210.020203,13.998076 
	C208.210663,13.340853 206.402390,12.113704 204.591400,12.109679 
	C158.185730,12.006545 111.779793,12.033278 65.373894,12.031631 
	C56.891235,12.031330 48.408581,12.006040 39.457809,11.946877 
	C38.827389,8.359208 41.419666,9.014767 43.486336,9.012574 
	C61.982151,8.992947 80.477997,9.001007 98.973831,9.000988 
	C128.300568,9.000958 157.627518,9.063077 186.953857,8.955441 
	C193.910522,8.929908 200.862427,8.179931 207.821625,8.060202 
	C212.061157,7.987263 213.636154,10.157839 211.999207,13.951804 
	C210.899368,13.999124 210.459793,13.998600 210.020203,13.998076 
z"/>
<path fill="#FDF9F9" opacity="1.000000" stroke="none" 
	d="
M95.000305,92.999695 
	C91.785484,91.514717 88.292732,90.411224 85.485901,88.366249 
	C84.279892,87.487587 84.497681,84.654694 84.399292,82.394287 
	C88.902603,83.668587 93.075203,85.258270 97.606125,86.872124 
	C100.308449,87.633102 102.652435,88.369911 105.051453,89.429733 
	C105.812141,90.132835 106.517807,90.512917 107.571335,90.889511 
	C108.611511,90.950882 109.303810,91.015762 110.047554,91.446510 
	C110.753075,92.496658 111.282349,93.511070 112.080978,93.813011 
	C118.497742,96.238968 127.628296,93.069321 132.216644,86.987335 
	C132.432220,86.953415 132.868500,86.941315 133.228302,86.933594 
	C134.725616,85.954132 135.863144,84.982399 137.289429,83.966141 
	C137.967041,83.906464 138.355911,83.891304 139.131165,83.888611 
	C142.345779,82.322372 145.173996,80.743675 148.334534,79.112137 
	C149.114761,79.046890 149.562668,79.034492 150.295319,79.309799 
	C154.047256,79.411423 157.514465,79.225327 161.318695,79.032684 
	C162.102905,79.069206 162.550049,79.112282 163.065491,79.487915 
	C164.831680,80.510323 166.529587,81.200157 168.423691,81.882462 
	C168.619888,81.874931 169.010040,81.919235 169.107224,82.191071 
	C169.469696,82.974716 169.735001,83.486526 170.000290,83.998344 
	C165.438934,83.413834 160.862839,82.923927 156.320694,82.216087 
	C152.398346,81.604851 149.498703,82.079765 147.254425,86.148689 
	C144.235229,91.622543 138.646118,93.640503 132.663040,93.911758 
	C129.342545,94.062294 127.535362,94.827316 128.637436,98.469818 
	C125.473686,98.627052 122.620979,98.768822 119.007996,98.910362 
	C110.536926,96.789124 103.604065,91.608345 95.000305,92.999695 
z"/>
<path fill="#FAE7E8" opacity="1.000000" stroke="none" 
	d="
M103.002930,147.001831 
	C103.763199,146.351501 104.523483,145.701187 105.577652,145.387787 
	C105.199379,147.776505 104.506409,149.821747 103.858948,151.881302 
	C101.838249,158.309052 102.360909,159.016708 109.132156,159.020233 
	C142.095581,159.037415 175.059021,159.050385 208.022446,159.064835 
	C208.013672,159.491089 208.004898,159.917358 207.985901,160.662888 
	C205.612152,160.985550 203.248642,160.988937 200.441254,160.992813 
	C197.042847,160.991501 194.088303,160.988205 191.133774,160.988190 
	C165.735657,160.988068 140.337555,160.988525 114.006905,160.989655 
	C110.599922,160.990997 108.125229,161.014465 105.651085,160.987244 
	C100.568192,160.931305 98.979744,158.645828 100.631042,153.764252 
	C101.396439,151.501587 102.210785,149.255463 103.002930,147.001831 
z"/>
<path fill="#FCF5F5" opacity="1.000000" stroke="none" 
	d="
M14.002542,37.400078 
	C14.546649,37.146328 15.089004,37.289715 15.802715,38.044300 
	C17.002773,40.648808 17.542170,43.274586 19.150410,44.518791 
	C24.315531,48.514759 29.825768,52.076321 35.298191,55.659901 
	C40.157742,58.842140 45.144398,61.830280 50.074944,64.904099 
	C50.074944,64.904099 50.026279,64.973831 50.000534,65.008362 
	C39.416275,65.457176 31.812349,59.556725 24.469120,53.103577 
	C23.850988,52.560368 23.337154,51.620029 22.648449,51.478249 
	C14.979075,49.899345 14.077808,44.124386 14.002542,37.400078 
z"/>
<path fill="#FDFDFE" opacity="1.000000" stroke="none" 
	d="
M95.000183,93.416550 
	C103.604065,91.608345 110.536926,96.789124 118.623703,98.954987 
	C118.999779,100.388863 118.999863,101.777870 118.999817,103.583595 
	C118.136612,104.159187 117.273521,104.318077 115.837173,104.743134 
	C114.772827,105.049820 114.281738,105.090332 113.491486,105.124901 
	C112.796265,105.071938 112.400215,105.024918 111.947449,104.638336 
	C110.593819,103.532417 109.296898,102.766052 107.985657,101.595032 
	C107.418709,100.489624 106.941093,99.266068 106.301071,99.174210 
	C102.555504,98.636696 98.771957,98.363930 95.001221,98.001831 
	C95.000832,96.612350 95.000443,95.222878 95.000183,93.416550 
z"/>
<path fill="#FDF9F9" opacity="1.000000" stroke="none" 
	d="
M95.001068,98.413124 
	C98.771957,98.363930 102.555504,98.636696 106.301071,99.174210 
	C106.941093,99.266068 107.418709,100.489624 107.695343,101.612946 
	C106.954971,102.331772 106.490601,102.628044 105.682533,102.943512 
	C104.880402,102.945847 104.421974,102.928986 103.755646,102.678253 
	C100.029198,104.601776 96.510651,106.759171 92.772179,108.962502 
	C92.552261,109.008430 92.104813,109.049461 91.740509,109.062241 
	C89.581581,110.356567 87.786964,111.638123 85.692352,112.994713 
	C84.952217,113.463394 84.512085,113.857056 83.749611,114.194336 
	C82.994286,114.155052 82.561295,114.172157 82.095337,114.139145 
	C82.062355,114.089020 81.996628,113.988632 81.996628,113.988632 
	C82.036713,105.891174 82.035057,105.876740 89.806015,104.986588 
	C93.506104,104.562752 95.522324,102.778168 95.001068,98.413124 
z"/>
<path fill="#FCF2F2" opacity="1.000000" stroke="none" 
	d="
M55.000366,114.992393 
	C60.991810,116.226967 66.819496,112.081131 73.057838,114.779877 
	C75.256752,115.731148 78.445854,114.393517 81.589745,114.044785 
	C81.996628,113.988632 82.062355,114.089020 82.007385,114.441925 
	C80.971230,115.538322 79.990059,116.281807 78.677788,117.029198 
	C77.907196,117.073776 77.467690,117.114433 76.731140,117.126205 
	C75.953629,117.391022 75.473167,117.684715 74.662476,117.984825 
	C73.893753,118.031258 73.455269,118.071281 72.571342,118.077614 
	C69.743759,118.085297 67.361610,118.126671 64.542709,118.128204 
	C61.793781,118.016670 59.481598,117.944992 57.097416,117.569679 
	C56.350403,116.508163 55.675385,115.750282 55.000366,114.992393 
z"/>
<path fill="#FDF9F9" opacity="1.000000" stroke="none" 
	d="
M181.996994,93.002701 
	C177.909729,91.247589 171.258667,93.408096 171.355774,85.436867 
	C173.839386,86.034912 175.968796,86.999405 178.369904,88.094719 
	C179.440842,89.114571 180.240082,90.003601 181.126160,91.169937 
	C181.474350,91.965721 181.735672,92.484207 181.996994,93.002701 
z"/>
<path fill="#FCF5F5" opacity="1.000000" stroke="none" 
	d="
M182.344330,93.154015 
	C181.735672,92.484207 181.474350,91.965721 181.521851,91.208176 
	C187.556137,91.669136 193.281616,92.369164 199.007080,93.069191 
	C196.624619,93.713730 194.242142,94.358276 191.427094,95.004982 
	C188.226898,94.439873 185.459274,93.872597 182.344330,93.154015 
z"/>
<path fill="#EDC3C7" opacity="1.000000" stroke="none" 
	d="
M54.704544,114.976387 
	C55.675385,115.750282 56.350403,116.508163 56.654305,117.612793 
	C51.744331,118.170540 47.350716,118.159653 47.041477,111.909599 
	C48.805416,112.533249 50.569351,113.156891 52.657043,113.916580 
	C53.456776,114.355217 53.932751,114.657799 54.704544,114.976387 
z"/>
<path fill="#FCF5F5" opacity="1.000000" stroke="none" 
	d="
M97.247803,86.847954 
	C93.075203,85.258270 88.902603,83.668587 84.363174,82.041702 
	C83.553040,82.002739 83.109734,82.000969 82.333939,81.997925 
	C81.911636,81.239464 81.821823,80.482277 82.214432,79.474197 
	C84.935562,80.226082 87.234695,81.114807 89.397614,82.260658 
	C92.073433,83.678230 94.636192,85.309189 97.247803,86.847954 
z"/>
<path fill="#FCF5F5" opacity="1.000000" stroke="none" 
	d="
M29.714302,11.690128 
	C26.903297,13.291021 23.816902,14.608079 20.368164,15.967094 
	C20.581680,11.014029 21.813240,10.413104 29.714302,11.690128 
z"/>
<path fill="#FDF9F9" opacity="1.000000" stroke="none" 
	d="
M210.105026,23.990376 
	C210.071671,21.952353 210.038315,19.914330 210.342896,17.438841 
	C211.120743,17.000887 211.560654,17.000401 212.000549,16.999914 
	C212.206070,19.226292 212.411606,21.452667 211.991898,23.838562 
	C210.946121,23.995512 210.525574,23.992943 210.105026,23.990376 
z"/>
<path fill="#FCF5F5" opacity="1.000000" stroke="none" 
	d="
M178.098190,87.963898 
	C175.968796,86.999405 173.839386,86.034912 171.355301,85.035110 
	C170.899124,84.676826 170.711716,84.415497 170.219330,84.107071 
	C169.735001,83.486526 169.469696,82.974716 169.479462,82.210060 
	C172.535736,83.959450 175.316956,85.961678 178.098190,87.963898 
z"/>
<path fill="#FCF5F5" opacity="1.000000" stroke="none" 
	d="
M209.997070,29.719631 
	C208.383621,29.937317 206.760513,29.876575 205.067902,29.490934 
	C206.372086,29.090776 207.745819,29.015516 209.529510,28.913164 
	C209.955444,29.071114 209.971420,29.256157 209.997070,29.719631 
z"/>
<path fill="#FCF5F5" opacity="1.000000" stroke="none" 
	d="
M210.103790,57.990940 
	C210.524536,57.993225 210.945267,57.995510 211.681473,57.998974 
	C211.694397,59.420620 211.391846,60.841084 211.056854,62.625633 
	C211.024414,62.989723 210.539780,63.002121 210.266937,62.586231 
	C210.030670,60.777206 210.067230,59.384075 210.103790,57.990940 
z"/>
<path fill="#FCF5F5" opacity="1.000000" stroke="none" 
	d="
M210.061966,24.390621 
	C210.525574,23.992943 210.946121,23.995512 211.683014,23.999115 
	C211.584763,25.290731 211.170151,26.581314 210.402634,27.939528 
	C210.039459,26.935062 210.029175,25.862967 210.061966,24.390621 
z"/>
<path fill="#FCF5F5" opacity="1.000000" stroke="none" 
	d="
M212.000534,16.624943 
	C211.560654,17.000401 211.120743,17.000887 210.352997,17.001892 
	C210.016327,16.251329 210.007523,15.500246 210.009460,14.373620 
	C210.459793,13.998600 210.899368,13.999124 211.669876,13.999922 
	C212.000702,14.750123 212.000610,15.500048 212.000534,16.624943 
z"/>
<path fill="#FCF5F5" opacity="1.000000" stroke="none" 
	d="
M83.533676,29.082001 
	C83.800423,29.576387 83.594200,30.413113 83.402275,30.409842 
	C76.002235,30.283840 68.603500,30.080999 61.102684,29.507671 
	C68.356308,29.095547 75.711845,29.064074 83.533676,29.082001 
z"/>
<path fill="#FCF5F5" opacity="1.000000" stroke="none" 
	d="
M43.534500,29.079453 
	C43.802135,29.571653 43.595818,30.406796 43.407913,30.402672 
	C38.005997,30.284132 32.605927,30.081457 27.103085,29.512787 
	C32.356781,29.099197 37.712952,29.065210 43.534500,29.079453 
z"/>
<path fill="#FCF5F5" opacity="1.000000" stroke="none" 
	d="
M131.536224,29.094067 
	C130.694550,29.763662 129.378632,30.921186 128.086227,30.895491 
	C124.454399,30.823275 120.832253,30.263662 117.103546,29.518101 
	C121.691437,29.107256 126.382080,29.074566 131.536224,29.094067 
z"/>
<path fill="#FCF5F5" opacity="1.000000" stroke="none" 
	d="
M19.575497,29.086288 
	C18.339451,32.257668 16.290155,31.473366 14.079172,29.346924 
	C15.726013,28.997477 17.438004,29.017473 19.575497,29.086288 
z"/>
<path fill="#FCF5F5" opacity="1.000000" stroke="none" 
	d="
M14.019978,28.599812 
	C9.969613,26.914373 13.285699,25.059278 14.529788,23.065540 
	C14.582806,24.736359 14.300126,26.475225 14.019978,28.599812 
z"/>
<path fill="#FCF5F5" opacity="1.000000" stroke="none" 
	d="
M16.275160,20.821766 
	C16.426319,19.995560 16.873325,19.048334 17.662601,18.050716 
	C17.526917,18.900467 17.048962,19.800606 16.275160,20.821766 
z"/>
<path fill="#F0B6BD" opacity="1.000000" stroke="none" 
	d="
M46.909241,111.656891 
	C47.350716,118.159653 51.744331,118.170540 56.726303,117.916428 
	C59.481598,117.944992 61.793781,118.016670 64.643860,118.486526 
	C67.957314,120.287262 70.716827,121.527191 73.016777,118.111313 
	C73.455269,118.071281 73.893753,118.031258 74.824036,118.214874 
	C75.886620,118.010712 76.457405,117.582901 77.028191,117.155090 
	C77.467690,117.114433 77.907196,117.073776 78.909943,117.295380 
	C82.607063,118.681671 83.926468,117.282440 84.071945,114.250717 
	C84.512085,113.857056 84.952217,113.463394 86.045822,112.982155 
	C88.501137,111.612869 90.302979,110.331169 92.104813,109.049461 
	C92.104813,109.049461 92.552261,109.008430 93.130951,108.948486 
	C97.127609,106.896408 100.545570,104.904259 103.963539,102.912125 
	C104.421974,102.928986 104.880402,102.945847 105.895195,103.227203 
	C108.302422,103.987091 110.153290,104.482498 112.004158,104.977890 
	C112.400215,105.024918 112.796265,105.071938 113.613770,105.454529 
	C120.023598,108.191849 126.011986,110.593597 132.000366,112.995354 
	C132.000366,112.995354 132.417984,113.068451 132.738159,113.401093 
	C134.709351,114.437889 136.360382,115.142036 138.011398,115.846184 
	C138.708359,115.928841 139.405304,116.011490 140.569122,116.431541 
	C144.357788,118.175163 147.679596,119.581398 151.001389,120.987625 
	C151.001389,120.987625 150.999390,121.001404 150.963745,121.363602 
	C150.455856,122.371208 150.122986,123.342255 149.490372,123.612999 
	C140.474045,127.471924 131.251160,129.150360 121.342491,127.478897 
	C116.019516,126.580978 110.024490,125.332840 105.904343,130.955902 
	C104.351250,132.410126 102.798157,133.864349 100.791061,135.683258 
	C99.929497,136.702148 99.521935,137.356369 99.114372,138.010574 
	C98.729271,139.043503 98.344177,140.076416 97.590591,141.565552 
	C96.527290,143.689636 95.832489,145.357513 95.053375,147.363052 
	C94.658905,148.805817 94.348724,149.910919 93.754822,151.241180 
	C93.020042,153.649033 92.568993,155.831711 91.973946,158.236542 
	C91.557777,158.680359 91.285599,158.902023 90.544907,159.085876 
	C84.992096,159.047211 79.907776,159.039108 74.823494,159.047684 
	C70.400261,159.055145 65.658623,159.970093 63.080963,154.837723 
	C63.059475,154.429703 63.037979,154.021698 62.947769,152.994171 
	C62.267792,151.896622 61.656532,151.418564 61.045273,150.940521 
	C61.045277,150.940521 60.996304,150.988052 61.017338,150.615417 
	C60.042118,148.798019 59.045864,147.353241 57.923843,145.631012 
	C57.188335,144.572525 56.578594,143.791504 55.941292,142.666702 
	C50.290657,134.458832 42.317764,129.619263 33.964146,125.269730 
	C32.693211,124.763824 31.422279,124.257912 30.025137,123.021912 
	C27.584349,121.537796 25.269772,120.783760 22.623983,120.026459 
	C21.519558,119.704002 20.746344,119.384819 19.926491,118.703842 
	C18.876875,115.825142 17.873898,113.308258 16.870918,110.791367 
	C16.870918,110.791367 16.877031,110.385216 17.286228,110.154922 
	C20.243959,108.897552 22.874947,108.032768 25.315397,106.792946 
	C27.331161,105.768867 29.121647,104.301361 31.263496,102.991997 
	C31.679182,102.910858 31.843328,102.868073 32.007473,102.825279 
	C32.446537,102.886482 32.885605,102.947693 33.717018,103.384750 
	C37.750160,105.834312 41.390953,107.908043 45.031746,109.981773 
	C45.613499,110.455910 46.195251,110.930046 46.909241,111.656891 
z"/>
<path fill="#EFB6BC" opacity="1.000000" stroke="none" 
	d="
M142.000000,167.966110 
	C162.977203,167.965073 183.454437,167.953323 203.931625,167.970184 
	C209.491669,167.974762 209.878845,168.550049 208.026947,173.628357 
	C205.861511,179.566437 199.011826,184.051498 191.904968,184.054443 
	C146.289078,184.073288 100.673172,184.067947 55.057274,184.069687 
	C43.070618,184.070145 31.082407,183.959366 19.098228,184.131149 
	C15.417969,184.183899 13.783362,183.433212 13.814856,179.224274 
	C13.899044,167.972443 13.689906,167.971298 25.129683,167.970886 
	C63.919788,167.969498 102.709892,167.967758 142.000000,167.966110 
z"/>
<path fill="#EFB8BF" opacity="1.000000" stroke="none" 
	d="
M53.927864,156.038635 
	C53.960606,156.474991 53.993343,156.911362 53.754211,157.963562 
	C42.352463,158.734207 31.215006,158.696991 20.096344,159.135895 
	C15.480320,159.318146 13.188073,158.239914 13.855459,153.198166 
	C14.031522,151.868088 13.280785,150.415344 12.955629,149.018921 
	C12.966859,144.979523 12.978089,140.940125 13.252296,136.166626 
	C13.687751,132.961853 13.860227,130.491180 14.032703,128.020523 
	C14.469810,128.021530 14.906917,128.022522 15.838321,128.256470 
	C16.890959,128.636414 17.449299,128.783401 18.007637,128.930389 
	C18.703737,128.991440 19.399836,129.052475 20.566450,129.438446 
	C23.365280,130.820648 25.693594,131.877914 28.021906,132.935165 
	C28.781055,133.301346 29.540205,133.667511 30.792343,134.280121 
	C31.808321,134.714111 32.331310,134.901672 32.943153,135.419495 
	C38.324932,139.883789 43.617855,144.017822 48.984463,148.475250 
	C50.681385,151.211975 52.304626,153.625305 53.927864,156.038635 
z"/>
<path fill="#FCFDFC" opacity="1.000000" stroke="none" 
	d="
M91.013428,159.123688 
	C91.285599,158.902023 91.557777,158.680359 92.317314,158.168274 
	C95.147682,155.937927 95.828545,153.699112 94.038559,151.016006 
	C94.348724,149.910919 94.658905,148.805817 95.361481,147.357941 
	C96.167885,147.009079 96.581894,147.003021 96.995903,146.996948 
	C98.712189,146.998184 100.428474,146.999420 102.573853,147.001251 
	C102.210785,149.255463 101.396439,151.501587 100.631042,153.764252 
	C98.979744,158.645828 100.568192,160.931305 105.651085,160.987244 
	C108.125229,161.014465 110.599922,160.990997 113.538391,160.991302 
	C112.215424,163.647705 110.349548,165.126831 106.532021,164.541779 
	C102.280190,163.890152 97.754242,165.218079 93.420464,164.842896 
	C90.555557,164.594849 87.818977,162.864548 85.420067,161.398331 
	C87.547928,160.373749 89.280678,159.748718 91.013428,159.123688 
z"/>
<path fill="#FCF2F2" opacity="1.000000" stroke="none" 
	d="
M48.910782,148.151871 
	C43.617855,144.017822 38.324932,139.883789 33.346191,135.387817 
	C37.458771,136.656219 41.257172,138.286575 46.500015,140.536896 
	C45.523087,137.891449 45.406387,135.876953 44.353725,135.040863 
	C41.094593,132.452225 37.479218,130.312103 34.002140,127.997864 
	C33.995262,127.312401 33.988380,126.626930 33.972824,125.605598 
	C42.317764,129.619263 50.290657,134.458832 55.547604,142.664917 
	C48.295845,142.031021 48.295845,142.031021 48.910782,148.151871 
z"/>
<path fill="#FCF2F2" opacity="1.000000" stroke="none" 
	d="
M12.670579,149.308426 
	C13.280785,150.415344 14.031522,151.868088 13.855459,153.198166 
	C13.188073,158.239914 15.480320,159.318146 20.096344,159.135895 
	C31.215006,158.696991 42.352463,158.734207 53.799858,158.288696 
	C57.015751,160.101700 54.890144,160.738739 53.090725,160.898788 
	C50.280361,161.148773 47.433361,160.995972 44.601879,160.997665 
	C36.439613,161.002563 28.277349,161.001801 20.115086,160.998718 
	C11.958885,160.995636 11.839598,160.880112 12.013004,152.534454 
	C12.033387,151.553452 12.256433,150.576675 12.670579,149.308426 
z"/>
<path fill="#FCFCFD" opacity="1.000000" stroke="none" 
	d="
M48.984463,148.475250 
	C48.295845,142.031021 48.295845,142.031021 55.575165,143.008713 
	C56.578594,143.791504 57.188335,144.572525 57.906326,145.991516 
	C58.344013,147.752090 58.673450,148.874695 59.002884,149.997299 
	C59.715420,153.576294 57.546375,154.950623 54.269196,155.888458 
	C52.304626,153.625305 50.681385,151.211975 48.984463,148.475250 
z"/>
<path fill="#FCFDFD" opacity="1.000000" stroke="none" 
	d="
M33.664154,128.032944 
	C37.479218,130.312103 41.094593,132.452225 44.353725,135.040863 
	C45.406387,135.876953 45.523087,137.891449 46.500015,140.536896 
	C41.257172,138.286575 37.458771,136.656219 33.257336,135.057556 
	C32.331310,134.901672 31.808321,134.714111 31.129826,134.287766 
	C31.758268,132.055328 32.542217,130.061676 33.664154,128.032944 
z"/>
<path fill="#FCF2F2" opacity="1.000000" stroke="none" 
	d="
M90.544907,159.085876 
	C89.280678,159.748718 87.547928,160.373749 85.407440,160.999084 
	C80.049179,160.999268 75.073120,160.688232 70.155785,161.092072 
	C65.798309,161.449936 63.664158,159.764526 63.087128,155.236115 
	C65.658623,159.970093 70.400261,159.055145 74.823494,159.047684 
	C79.907776,159.039108 84.992096,159.047211 90.544907,159.085876 
z"/>
<path fill="#EDC3C7" opacity="1.000000" stroke="none" 
	d="
M31.011955,103.030342 
	C29.121647,104.301361 27.331161,105.768867 25.315397,106.792946 
	C22.874947,108.032768 20.243959,108.897552 17.322514,109.955093 
	C19.719536,107.638367 22.489468,105.291168 26.040958,102.943954 
	C28.218996,102.972733 29.615477,103.001541 31.011955,103.030342 
z"/>
<path fill="#EDC3C7" opacity="1.000000" stroke="none" 
	d="
M16.563267,110.884857 
	C17.873898,113.308258 18.876875,115.825142 19.595222,118.699974 
	C18.869646,119.086021 18.428696,119.114136 17.987747,119.142250 
	C16.824310,118.930840 15.660872,118.719429 14.251795,117.852768 
	C13.988544,116.129692 13.970937,115.061867 13.953329,113.994041 
	C14.720756,112.988808 15.488183,111.983574 16.563267,110.884857 
z"/>
<path fill="#EDC3C7" opacity="1.000000" stroke="none" 
	d="
M44.891479,109.683914 
	C41.390953,107.908043 37.750160,105.834312 34.046757,103.427788 
	C34.434498,103.059227 34.884853,103.023460 35.873123,103.245079 
	C37.275555,103.658684 38.140072,103.814911 39.004585,103.971130 
	C40.920132,105.776115 42.835674,107.581093 44.891479,109.683914 
z"/>
<path fill="#FCF2F2" opacity="1.000000" stroke="none" 
	d="
M13.649820,128.088257 
	C13.860227,130.491180 13.687751,132.961853 13.224125,135.702209 
	C13.044296,133.366592 13.155617,130.761292 13.649820,128.088257 
z"/>
<path fill="#FCF2F2" opacity="1.000000" stroke="none" 
	d="
M27.968502,132.576447 
	C25.693594,131.877914 23.365280,130.820648 20.916050,129.436188 
	C23.168455,130.145233 25.541775,131.181488 27.968502,132.576447 
z"/>
<path fill="#EDC3C7" opacity="1.000000" stroke="none" 
	d="
M22.955194,120.029724 
	C25.269772,120.783760 27.584349,121.537796 29.933018,122.679550 
	C29.227068,123.040810 28.487028,123.014351 27.205748,122.744392 
	C26.107914,122.337212 25.551319,122.173523 24.994724,122.009834 
	C24.994724,122.009834 25.000305,122.000046 24.843826,121.757187 
	C24.109964,121.019463 23.532579,120.524597 22.955194,120.029724 
z"/>
<path fill="#FCF2F2" opacity="1.000000" stroke="none" 
	d="
M31.263496,102.991997 
	C29.615477,103.001541 28.218996,102.972733 26.405712,102.900261 
	C27.579552,99.724434 29.673172,100.669167 31.919329,102.480545 
	C31.843328,102.868073 31.679182,102.910858 31.263496,102.991997 
z"/>
<path fill="#FCF2F2" opacity="1.000000" stroke="none" 
	d="
M22.623983,120.026459 
	C23.532579,120.524597 24.109964,121.019463 24.839632,121.759903 
	C22.707848,121.278923 20.423779,120.552376 18.063728,119.484039 
	C18.428696,119.114136 18.869646,119.086021 19.641861,119.061783 
	C20.746344,119.384819 21.519558,119.704002 22.623983,120.026459 
z"/>
<path fill="#FCF2F2" opacity="1.000000" stroke="none" 
	d="
M59.265900,150.107498 
	C58.673450,148.874695 58.344013,147.752090 58.032097,146.268982 
	C59.045864,147.353241 60.042118,148.798019 61.049816,150.605103 
	C60.550476,150.717499 60.039692,150.467590 59.265900,150.107498 
z"/>
<path fill="#FCF2F2" opacity="1.000000" stroke="none" 
	d="
M13.611324,114.058792 
	C13.970937,115.061867 13.988544,116.129692 14.007290,117.597923 
	C11.234538,117.188850 11.354820,115.827316 13.611324,114.058792 
z"/>
<path fill="#FCF2F2" opacity="1.000000" stroke="none" 
	d="
M38.959110,103.650742 
	C38.140072,103.814911 37.275555,103.658684 36.211819,103.233292 
	C36.979610,103.086197 37.946621,103.208275 38.959110,103.650742 
z"/>
<path fill="#FCF2F2" opacity="1.000000" stroke="none" 
	d="
M25.026634,122.302460 
	C25.551319,122.173523 26.107914,122.337212 26.835115,122.743256 
	C26.356663,122.855438 25.707603,122.725258 25.026634,122.302460 
z"/>
<path fill="#FCF2F2" opacity="1.000000" stroke="none" 
	d="
M61.065147,151.262985 
	C61.656532,151.418564 62.267792,151.896622 62.897991,152.691498 
	C62.306293,152.534042 61.695660,152.059753 61.065147,151.262985 
z"/>
<path fill="#FCF2F2" opacity="1.000000" stroke="none" 
	d="
M17.973396,128.644409 
	C17.449299,128.783401 16.890959,128.636414 16.165943,128.244202 
	C16.645897,128.118805 17.292524,128.238602 17.973396,128.644409 
z"/>
<path fill="#F0B7BE" opacity="1.000000" stroke="none" 
	d="
M178.369904,88.094719 
	C175.316956,85.961678 172.535736,83.959450 169.382263,81.938232 
	C169.010040,81.919235 168.619888,81.874931 168.296051,81.560364 
	C166.313889,80.548973 164.655548,79.852165 162.997208,79.155357 
	C162.550049,79.112282 162.102905,79.069206 161.036972,78.741852 
	C156.948990,78.645737 153.479797,78.833908 150.010590,79.022087 
	C149.562668,79.034492 149.114761,79.046890 147.958221,79.070160 
	C144.414642,80.679390 141.579712,82.277763 138.744766,83.876144 
	C138.355911,83.891304 137.967041,83.906464 136.944763,83.996170 
	C135.163712,85.027573 134.016113,85.984444 132.868500,86.941315 
	C132.868500,86.941315 132.432220,86.953415 131.856125,87.010559 
	C124.504166,90.096046 118.270866,96.002090 109.996117,91.080635 
	C109.303810,91.015762 108.611511,90.950882 107.466469,90.588409 
	C106.341293,89.896118 105.668854,89.501419 104.996422,89.106720 
	C102.652435,88.369911 100.308449,87.633102 97.606125,86.872124 
	C94.636192,85.309189 92.073433,83.678230 89.397614,82.260658 
	C87.234695,81.114807 84.935562,80.226082 82.340332,79.262390 
	C80.570580,78.882538 79.157333,78.463593 77.205597,77.768616 
	C76.110458,77.345795 75.553825,77.199013 74.997192,77.052223 
	C74.505692,76.759956 74.014191,76.467697 73.258148,75.656723 
	C72.664436,73.107849 72.335258,71.077690 72.006088,69.047523 
	C72.554604,68.834076 73.103119,68.620628 74.146629,68.183578 
	C75.088356,67.952660 75.535088,67.945335 76.169746,68.219559 
	C77.144028,69.075195 77.879860,69.742149 78.727654,70.203270 
	C80.306114,71.061798 81.949768,71.800484 83.566284,72.589050 
	C83.722832,70.844490 83.894699,69.101074 84.025970,67.354614 
	C84.062279,66.871597 83.977844,66.379494 84.201218,65.645660 
	C85.966644,64.928062 87.479668,64.456360 88.992699,63.984657 
	C92.354721,63.999706 95.716743,64.014755 99.774216,64.286438 
	C101.647224,64.659958 102.824776,64.776825 104.002335,64.893692 
	C106.371895,64.927673 108.741447,64.961655 111.852142,64.963600 
	C113.058258,64.611946 113.523239,64.292313 113.988228,63.972683 
	C114.801765,63.732388 115.615303,63.492092 117.031029,63.085327 
	C118.385071,62.266899 119.136925,61.614944 119.888779,60.962994 
	C120.521805,60.194717 121.154823,59.426441 122.246216,58.314407 
	C123.442162,56.978897 124.179733,55.987144 124.917305,54.995392 
	C124.917305,54.995392 125.010490,54.556717 125.373581,54.244202 
	C127.437248,49.925602 129.561340,46.035099 130.696716,41.874771 
	C131.520584,38.855946 132.775589,37.825397 135.742294,37.878513 
	C143.159531,38.011292 150.580414,37.939732 157.999832,37.950165 
	C158.295334,38.108383 158.547028,38.318958 158.886642,39.158955 
	C160.994431,42.531132 162.970505,45.326252 164.946564,48.121368 
	C166.764999,50.321743 168.583450,52.522114 170.842468,55.165237 
	C174.189911,57.718151 177.096756,59.828312 180.003601,61.938477 
	C182.334442,63.003716 184.665268,64.068954 187.477982,65.433395 
	C188.640610,66.137550 189.321365,66.542511 190.002121,66.947472 
	C190.787689,67.285263 191.573273,67.623055 192.849487,68.219116 
	C193.894424,68.633842 194.448715,68.790291 195.002991,68.946739 
	C196.099945,69.303566 197.196915,69.660385 198.813232,70.254730 
	C199.888916,70.646217 200.445236,70.800186 201.001556,70.954147 
	C202.420532,71.307030 203.839523,71.659912 205.798386,72.242355 
	C206.893677,72.616562 207.449066,72.761200 208.004471,72.905846 
	C208.004471,72.905846 208.464554,72.994499 208.730789,73.451096 
	C209.074417,76.270576 209.151794,78.633446 209.229187,80.996323 
	C208.482224,86.922340 204.274307,90.013535 199.310791,92.901886 
	C193.281616,92.369164 187.556137,91.669136 181.434998,90.930870 
	C180.240082,90.003601 179.440842,89.114571 178.369904,88.094719 
z"/>
<path fill="#EFB7BE" opacity="1.000000" stroke="none" 
	d="
M50.387383,64.943657 
	C45.144398,61.830280 40.157742,58.842140 35.298191,55.659901 
	C29.825768,52.076321 24.315531,48.514759 19.150410,44.518791 
	C17.542170,43.274586 17.002773,40.648808 15.976685,38.271103 
	C16.735825,37.897484 17.492353,37.908264 19.090475,37.931580 
	C53.119789,37.944122 86.307510,37.944122 119.394402,37.944122 
	C120.513206,45.906734 116.620766,52.760056 109.025223,57.058556 
	C106.609009,56.736736 104.192787,56.414917 101.092628,55.773716 
	C96.275223,55.642014 92.141754,55.829689 88.008293,56.017361 
	C87.255829,56.019382 86.503372,56.021408 85.042152,56.043919 
	C83.562126,56.391109 82.790848,56.717812 82.019577,57.044518 
	C81.569817,57.053486 81.120064,57.062458 79.962944,57.113930 
	C75.762093,58.734905 72.268608,60.313377 68.775116,61.891853 
	C68.379990,61.914146 67.984856,61.936436 66.931137,61.989883 
	C64.783867,62.982349 63.295177,63.943661 61.806496,64.904968 
	C61.403572,64.931206 61.000645,64.957443 59.910019,65.059120 
	C57.148209,65.423943 55.074104,65.713310 53.000000,66.002686 
	C52.233273,65.662872 51.466549,65.323044 50.387383,64.943657 
z"/>
<path fill="#F0BAC0" opacity="1.000000" stroke="none" 
	d="
M210.066223,57.524361 
	C210.067230,59.384075 210.030670,60.777206 210.024567,62.587639 
	C209.276520,63.646503 208.498047,64.288071 207.136078,64.671997 
	C202.368408,62.942913 198.184204,61.471455 194.000000,60.000000 
	C193.606979,59.960720 193.213959,59.921440 192.417496,59.548023 
	C190.015335,58.127083 188.016632,57.040279 186.017914,55.953476 
	C184.959030,55.281704 183.900146,54.609936 182.425827,53.601173 
	C181.010254,52.500916 180.010101,51.737648 179.009949,50.974380 
	C176.811234,48.818989 174.612503,46.663597 172.181732,43.925423 
	C170.973923,42.224861 169.998184,41.107086 169.022430,39.989311 
	C169.014847,39.542091 169.007278,39.094872 169.208405,38.216946 
	C169.609192,37.519306 169.801300,37.252369 169.993393,36.985432 
	C181.900497,36.999916 193.808548,37.100201 205.714096,36.971577 
	C208.888916,36.937275 210.179184,37.871017 210.052551,41.183746 
	C209.850601,46.467678 210.017654,51.765713 210.066223,57.524361 
z"/>
<path fill="#FCF5F5" opacity="1.000000" stroke="none" 
	d="
M109.243591,57.298851 
	C116.620766,52.760056 120.513206,45.906734 119.394402,37.944122 
	C86.307510,37.944122 53.119789,37.944122 19.466513,37.888184 
	C20.336805,37.221779 21.670971,36.082615 23.008749,36.078354 
	C54.439701,35.978340 85.871216,35.964012 117.301819,36.108971 
	C118.883186,36.116264 120.395020,37.856968 122.052475,38.497570 
	C123.678467,39.126015 125.449112,39.380199 127.909065,41.124359 
	C126.026749,42.253181 124.144440,43.382004 121.391983,45.032654 
	C122.208389,48.395142 114.448776,51.452541 118.548111,57.786194 
	C117.836639,58.392616 116.781052,59.292339 116.830574,59.250130 
	C113.529366,58.483597 111.495659,58.011372 109.243591,57.298851 
z"/>
<path fill="#FCF5F5" opacity="1.000000" stroke="none" 
	d="
M157.905807,37.558784 
	C150.580414,37.939732 143.159531,38.011292 135.742294,37.878513 
	C132.775589,37.825397 131.520584,38.855946 130.696716,41.874771 
	C129.561340,46.035099 127.437248,49.925602 125.391876,54.020714 
	C126.658661,49.064896 128.127686,43.966679 129.982162,39.012756 
	C130.445282,37.775608 132.125031,36.186184 133.288910,36.149956 
	C140.945374,35.911652 148.613907,36.033199 156.277588,36.119381 
	C156.792847,36.125175 157.300568,36.802437 157.905807,37.558784 
z"/>
<path fill="#EAC2C5" opacity="1.000000" stroke="none" 
	d="
M83.948814,65.891563 
	C83.977844,66.379494 84.062279,66.871597 84.025970,67.354614 
	C83.894699,69.101074 83.722832,70.844490 83.566284,72.589050 
	C81.949768,71.800484 80.306114,71.061798 78.727654,70.203270 
	C77.879860,69.742149 77.144028,69.075195 76.187294,67.911232 
	C76.076744,66.913414 76.136566,66.505493 76.196388,66.097565 
	C77.532249,66.040092 78.868118,65.982613 80.967697,65.914986 
	C82.470551,65.900406 83.209686,65.895988 83.948814,65.891563 
z"/>
<path fill="#EAC2C5" opacity="1.000000" stroke="none" 
	d="
M71.640961,69.061852 
	C72.335258,71.077690 72.664436,73.107849 73.005936,75.521393 
	C70.803642,75.116974 68.589012,74.329178 66.183533,72.938828 
	C65.998016,71.891663 66.003342,71.447044 66.008675,71.002434 
	C67.764397,70.360352 69.520119,69.718269 71.640961,69.061852 
z"/>
<path fill="#FCF5F5" opacity="1.000000" stroke="none" 
	d="
M88.298500,56.308556 
	C92.141754,55.829689 96.275223,55.642014 100.692802,55.751415 
	C96.847519,56.232246 92.718109,56.415997 88.298500,56.308556 
z"/>
<path fill="#FCF5F5" opacity="1.000000" stroke="none" 
	d="
M194.058090,60.352623 
	C198.184204,61.471455 202.368408,62.942913 206.788956,64.678261 
	C202.722260,63.529854 198.419220,62.117550 194.058090,60.352623 
z"/>
<path fill="#FCF5F5" opacity="1.000000" stroke="none" 
	d="
M179.963776,61.597549 
	C177.096756,59.828312 174.189911,57.718151 171.145264,55.302494 
	C173.979614,57.083538 176.951797,59.170082 179.963776,61.597549 
z"/>
<path fill="#FCF5F5" opacity="1.000000" stroke="none" 
	d="
M164.935028,47.752411 
	C162.970505,45.326252 160.994431,42.531132 159.019562,39.367752 
	C160.988342,41.794144 162.955917,44.588795 164.935028,47.752411 
z"/>
<path fill="#FCF5F5" opacity="1.000000" stroke="none" 
	d="
M69.172394,61.896305 
	C72.268608,60.313377 75.762093,58.734905 79.628975,57.164619 
	C76.524803,58.748787 73.047241,60.324776 69.172394,61.896305 
z"/>
<path fill="#FCF5F5" opacity="1.000000" stroke="none" 
	d="
M209.583374,80.895088 
	C209.151794,78.633446 209.074417,76.270576 208.964554,73.466553 
	C212.736115,75.165909 211.154938,78.003426 209.583374,80.895088 
z"/>
<path fill="#FCF5F5" opacity="1.000000" stroke="none" 
	d="
M84.201218,65.645660 
	C83.209686,65.895988 82.470551,65.900406 81.364517,65.855026 
	C83.501770,65.016624 86.005913,64.228020 88.751381,63.712036 
	C87.479668,64.456360 85.966644,64.928062 84.201218,65.645660 
z"/>
<path fill="#FCF5F5" opacity="1.000000" stroke="none" 
	d="
M53.065071,66.359482 
	C55.074104,65.713310 57.148209,65.423943 59.611977,65.114845 
	C58.164536,67.557297 56.147678,69.257553 53.065071,66.359482 
z"/>
<path fill="#FCF5F5" opacity="1.000000" stroke="none" 
	d="
M186.062134,56.303467 
	C188.016632,57.040279 190.015335,58.127083 192.121155,59.550903 
	C190.187622,58.809765 188.147003,57.731613 186.062134,56.303467 
z"/>
<path fill="#FCF5F5" opacity="1.000000" stroke="none" 
	d="
M62.190868,64.933777 
	C63.295177,63.943661 64.783867,62.982349 66.637054,62.031837 
	C65.526123,63.015953 64.050682,63.989269 62.190868,64.933777 
z"/>
<path fill="#FCF5F5" opacity="1.000000" stroke="none" 
	d="
M168.773651,40.177124 
	C169.998184,41.107086 170.973923,42.224861 171.976807,43.671143 
	C170.844254,42.788074 169.684555,41.576504 168.773651,40.177124 
z"/>
<path fill="#FCF5F5" opacity="1.000000" stroke="none" 
	d="
M103.938675,64.563248 
	C102.824776,64.776825 101.647224,64.659958 100.232056,64.277649 
	C101.287964,64.085747 102.581482,64.159271 103.938675,64.563248 
z"/>
<path fill="#FCF5F5" opacity="1.000000" stroke="none" 
	d="
M124.581558,55.034569 
	C124.179733,55.987144 123.442162,56.978897 122.372902,58.033783 
	C122.776077,57.089191 123.510948,56.081470 124.581558,55.034569 
z"/>
<path fill="#FCF5F5" opacity="1.000000" stroke="none" 
	d="
M179.040848,51.324718 
	C180.010101,51.737648 181.010254,52.500916 182.091248,53.591614 
	C181.138657,53.171047 180.105194,52.423054 179.040848,51.324718 
z"/>
<path fill="#FCF5F5" opacity="1.000000" stroke="none" 
	d="
M82.216690,57.290314 
	C82.790848,56.717812 83.562126,56.391109 84.668427,56.089424 
	C84.140236,56.588329 83.277023,57.062218 82.216690,57.290314 
z"/>
<path fill="#FCF5F5" opacity="1.000000" stroke="none" 
	d="
M119.549629,60.979900 
	C119.136925,61.614944 118.385071,62.266899 117.315430,62.929253 
	C117.735252,62.292034 118.472870,61.644424 119.549629,60.979900 
z"/>
<path fill="#FCF5F5" opacity="1.000000" stroke="none" 
	d="
M169.840515,36.767120 
	C169.801300,37.252369 169.609192,37.519306 169.184921,37.882271 
	C168.800995,37.497112 168.649246,37.015930 168.497482,36.534752 
	C168.894211,36.539436 169.290924,36.544121 169.840515,36.767120 
z"/>
<path fill="#FCF5F5" opacity="1.000000" stroke="none" 
	d="
M75.030449,77.341118 
	C75.553825,77.199013 76.110458,77.345795 76.839539,77.732407 
	C76.362564,77.858154 75.713135,77.744087 75.030449,77.341118 
z"/>
<path fill="#FCF5F5" opacity="1.000000" stroke="none" 
	d="
M207.969635,72.623306 
	C207.449066,72.761200 206.893677,72.616562 206.172852,72.227188 
	C206.649902,72.101898 207.292358,72.221336 207.969635,72.623306 
z"/>
<path fill="#FCF5F5" opacity="1.000000" stroke="none" 
	d="
M65.710495,71.037781 
	C66.003342,71.447044 65.998016,71.891663 65.965363,72.668716 
	C65.433670,72.756630 64.929291,72.512085 64.424911,72.267540 
	C64.754044,71.869400 65.083176,71.471268 65.710495,71.037781 
z"/>
<path fill="#FCF5F5" opacity="1.000000" stroke="none" 
	d="
M200.969482,70.665741 
	C200.445236,70.800186 199.888916,70.646217 199.165619,70.247528 
	C199.644882,70.127640 200.291153,70.252487 200.969482,70.665741 
z"/>
<path fill="#FCF5F5" opacity="1.000000" stroke="none" 
	d="
M194.970474,68.659714 
	C194.448715,68.790291 193.894424,68.633842 193.172028,68.234238 
	C193.648575,68.118279 194.293274,68.245483 194.970474,68.659714 
z"/>
<path fill="#FCF5F5" opacity="1.000000" stroke="none" 
	d="
M75.859573,66.095184 
	C76.136566,66.505493 76.076744,66.913414 75.999367,67.629669 
	C75.535088,67.945335 75.088356,67.952660 74.307106,67.931580 
	C74.489311,67.299713 75.006035,66.696259 75.859573,66.095184 
z"/>
<path fill="#FCF5F5" opacity="1.000000" stroke="none" 
	d="
M189.949158,66.614594 
	C189.321365,66.542511 188.640610,66.137550 187.843231,65.433578 
	C188.449799,65.516953 189.172989,65.899338 189.949158,66.614594 
z"/>
<path fill="#FCF5F5" opacity="1.000000" stroke="none" 
	d="
M113.820168,63.749825 
	C113.523239,64.292313 113.058258,64.611946 112.294594,64.922287 
	C112.547981,64.450996 113.100044,63.988979 113.820168,63.749825 
z"/>
<path fill="#F0B7BE" opacity="1.000000" stroke="none" 
	d="
M208.037064,158.720520 
	C175.059021,159.050385 142.095581,159.037415 109.132156,159.020233 
	C102.360909,159.016708 101.838249,158.309052 103.858948,151.881302 
	C104.506409,149.821747 105.199379,147.776505 105.882858,145.342255 
	C105.950851,144.554031 106.007515,144.148285 106.416534,143.357666 
	C110.332054,140.538849 113.051300,136.872055 118.488907,137.899200 
	C123.800194,138.902451 129.371811,139.118835 134.780273,138.813919 
	C138.554794,138.601120 142.246933,136.927414 145.975876,135.906250 
	C146.785889,135.684006 147.595886,135.461746 148.996246,135.090607 
	C150.053467,134.609497 150.520340,134.277267 150.987213,133.945053 
	C152.082275,133.622177 153.177353,133.299286 154.974716,132.913620 
	C159.460648,131.535431 163.244263,130.220047 167.027878,128.904663 
	C167.027878,128.904648 167.488708,128.981277 167.787598,129.337738 
	C169.406174,130.415604 170.725861,131.137009 172.045532,131.858429 
	C172.802917,132.224945 173.560318,132.591461 174.691620,133.310425 
	C175.731079,134.038757 176.396606,134.414673 177.062149,134.790573 
	C182.151657,137.722809 187.206573,140.717758 192.349075,143.553894 
	C194.192307,144.570450 196.246933,145.203674 198.641174,146.357025 
	C200.394531,147.780197 201.711792,148.858185 203.029068,149.936188 
	C203.589157,150.461578 204.149246,150.986969 204.901001,152.084015 
	C206.094040,154.103897 207.095428,155.552124 208.096802,157.000351 
	C208.081757,157.458969 208.066711,157.917587 208.037064,158.720520 
z"/>
<path fill="#FCF2F2" opacity="1.000000" stroke="none" 
	d="
M106.303566,130.932098 
	C110.024490,125.332840 116.019516,126.580978 121.342491,127.478897 
	C131.251160,129.150360 140.474045,127.471924 149.490372,123.612999 
	C150.122986,123.342255 150.455856,122.371208 150.970581,121.361702 
	C151.896362,121.191284 152.779694,121.384972 154.888275,121.847313 
	C152.734161,123.340057 151.583908,124.419472 150.223663,125.034409 
	C140.677032,129.350174 130.900864,131.122162 120.301544,129.292816 
	C115.989998,128.548691 111.248611,130.295090 106.303566,130.932098 
z"/>
<path fill="#FAE7E8" opacity="1.000000" stroke="none" 
	d="
M145.728088,135.649567 
	C142.246933,136.927414 138.554794,138.601120 134.780273,138.813919 
	C129.371811,139.118835 123.800194,138.902451 118.488907,137.899200 
	C113.051300,136.872055 110.332054,140.538849 106.430634,143.050354 
	C107.460533,138.380295 110.753716,136.129517 115.556160,136.012009 
	C125.529945,135.767975 135.505478,135.595047 145.728088,135.649567 
z"/>
<path fill="#FCF2F2" opacity="1.000000" stroke="none" 
	d="
M131.939545,112.639091 
	C126.011986,110.593597 120.023598,108.191849 113.912933,105.460464 
	C114.281738,105.090332 114.772827,105.049820 115.632065,105.006104 
	C121.293045,107.429543 126.585892,109.856186 131.939545,112.639091 
z"/>
<path fill="#FAE7E8" opacity="1.000000" stroke="none" 
	d="
M166.951370,128.558517 
	C163.244263,130.220047 159.460648,131.535431 155.311111,132.832001 
	C158.394043,128.697937 163.463745,126.742744 166.951370,128.558517 
z"/>
<path fill="#FCF2F2" opacity="1.000000" stroke="none" 
	d="
M150.944550,120.635269 
	C147.679596,119.581398 144.357788,118.175163 140.920380,116.434692 
	C144.165756,117.494598 147.526733,118.888756 150.944550,120.635269 
z"/>
<path fill="#FAE7E8" opacity="1.000000" stroke="none" 
	d="
M208.389587,156.954224 
	C207.095428,155.552124 206.094040,154.103897 205.080170,152.316254 
	C206.272583,153.620605 207.477478,155.264343 208.389587,156.954224 
z"/>
<path fill="#FAE7E8" opacity="1.000000" stroke="none" 
	d="
M203.016922,149.578354 
	C201.711792,148.858185 200.394531,147.780197 199.014069,146.367279 
	C200.302185,147.095078 201.653488,148.157791 203.016922,149.578354 
z"/>
<path fill="#FCF2F2" opacity="1.000000" stroke="none" 
	d="
M97.002190,146.617584 
	C96.581894,147.003021 96.167885,147.009079 95.445778,147.020264 
	C95.832489,145.357513 96.527290,143.689636 97.549614,141.896088 
	C97.587578,143.259689 97.298027,144.748947 97.002190,146.617584 
z"/>
<path fill="#FCF2F2" opacity="1.000000" stroke="none" 
	d="
M137.942444,115.514755 
	C136.360382,115.142036 134.709351,114.437889 132.950073,113.406540 
	C134.519028,113.780678 136.196243,114.482002 137.942444,115.514755 
z"/>
<path fill="#FAE7E8" opacity="1.000000" stroke="none" 
	d="
M171.979202,131.534485 
	C170.725861,131.137009 169.406174,130.415604 168.019836,129.362869 
	C169.273056,129.757889 170.592972,130.484222 171.979202,131.534485 
z"/>
<path fill="#FAE7E8" opacity="1.000000" stroke="none" 
	d="
M150.813614,133.726288 
	C150.520340,134.277267 150.053467,134.609497 149.282806,134.944641 
	C149.532684,134.467560 150.086349,133.987534 150.813614,133.726288 
z"/>
<path fill="#FCF2F2" opacity="1.000000" stroke="none" 
	d="
M99.427261,137.958878 
	C99.521935,137.356369 99.929497,136.702148 100.650497,135.983826 
	C100.556015,136.582199 100.148087,137.244690 99.427261,137.958878 
z"/>
<path fill="#FAE7E8" opacity="1.000000" stroke="none" 
	d="
M176.992981,134.491196 
	C176.396606,134.414673 175.731079,134.038757 175.007141,133.347778 
	C175.607101,133.419067 176.265442,133.805435 176.992981,134.491196 
z"/>
<path fill="#FCF5F5" opacity="1.000000" stroke="none" 
	d="
M110.047554,91.446510 
	C118.270866,96.002090 124.504166,90.096046 131.640549,87.044479 
	C127.628296,93.069321 118.497742,96.238968 112.080978,93.813011 
	C111.282349,93.511070 110.753075,92.496658 110.047554,91.446510 
z"/>
<path fill="#FCF5F5" opacity="1.000000" stroke="none" 
	d="
M150.295319,79.309799 
	C153.479797,78.833908 156.948990,78.645737 160.699921,78.748398 
	C157.514465,79.225327 154.047256,79.411423 150.295319,79.309799 
z"/>
<path fill="#FCF5F5" opacity="1.000000" stroke="none" 
	d="
M139.131165,83.888611 
	C141.579712,82.277763 144.414642,80.679390 147.625900,79.123001 
	C145.173996,80.743675 142.345779,82.322372 139.131165,83.888611 
z"/>
<path fill="#FCF5F5" opacity="1.000000" stroke="none" 
	d="
M163.065491,79.487915 
	C164.655548,79.852165 166.313889,80.548973 168.099854,81.567894 
	C166.529587,81.200157 164.831680,80.510323 163.065491,79.487915 
z"/>
<path fill="#FCF5F5" opacity="1.000000" stroke="none" 
	d="
M133.228302,86.933594 
	C134.016113,85.984444 135.163712,85.027573 136.655991,84.040688 
	C135.863144,84.982399 134.725616,85.954132 133.228302,86.933594 
z"/>
<path fill="#FCF5F5" opacity="1.000000" stroke="none" 
	d="
M105.051453,89.429733 
	C105.668854,89.501419 106.341293,89.896118 107.118599,90.591911 
	C106.517807,90.512917 105.812141,90.132835 105.051453,89.429733 
z"/>
<path fill="#FCF2F2" opacity="1.000000" stroke="none" 
	d="
M111.947449,104.638336 
	C110.153290,104.482498 108.302422,103.987091 106.238892,103.208000 
	C106.490601,102.628044 106.954971,102.331772 107.709656,102.017601 
	C109.296898,102.766052 110.593819,103.532417 111.947449,104.638336 
z"/>
<path fill="#FCF2F2" opacity="1.000000" stroke="none" 
	d="
M103.755646,102.678246 
	C100.545570,104.904259 97.127609,106.896408 93.350868,108.902557 
	C96.510651,106.759171 100.029198,104.601776 103.755646,102.678246 
z"/>
<path fill="#EDC3C7" opacity="1.000000" stroke="none" 
	d="
M83.749603,114.194328 
	C83.926468,117.282440 82.607063,118.681671 79.241043,117.291466 
	C79.990059,116.281807 80.971230,115.538322 82.040359,114.492050 
	C82.561295,114.172157 82.994286,114.155052 83.749603,114.194328 
z"/>
<path fill="#FCF2F2" opacity="1.000000" stroke="none" 
	d="
M91.740509,109.062241 
	C90.302979,110.331169 88.501137,111.612869 86.345825,112.907127 
	C87.786964,111.638123 89.581581,110.356567 91.740509,109.062241 
z"/>
<path fill="#EDC3C7" opacity="1.000000" stroke="none" 
	d="
M72.571342,118.077614 
	C70.716827,121.527191 67.957314,120.287262 65.080605,118.526375 
	C67.361610,118.126671 69.743759,118.085297 72.571342,118.077614 
z"/>
<path fill="#EDC3C7" opacity="1.000000" stroke="none" 
	d="
M76.731140,117.126205 
	C76.457405,117.582901 75.886620,118.010712 75.154274,118.208466 
	C75.473167,117.684715 75.953629,117.391022 76.731140,117.126205 
z"/>
<path fill="#FCF2F2" opacity="1.000000" stroke="none" 
	d="
M93.754829,151.241180 
	C95.828545,153.699112 95.147682,155.937927 92.461311,157.946136 
	C92.568993,155.831711 93.020042,153.649033 93.754829,151.241180 
z"/>
</svg>